<svg xmlns="http://www.w3.org/2000/svg" viewBox="0 0 100 100" width="100" height="100">
  <defs>
    <linearGradient id="babyGradient" x1="0%" y1="0%" x2="100%" y2="100%">
      <stop offset="0%" style="stop-color:#FEF3C7;stop-opacity:1" />
      <stop offset="50%" style="stop-color:#DDD6FE;stop-opacity:1" />
      <stop offset="100%" style="stop-color:#BFDBFE;stop-opacity:1" />
    </linearGradient>
  </defs>
  
  <!-- Background circle -->
  <circle cx="50" cy="50" r="45" fill="url(#babyGradient)" stroke="#6B7280" stroke-width="2"/>
  
  <!-- Baby face -->
  <circle cx="50" cy="40" r="18" fill="#F3F4F6" stroke="#6B7280" stroke-width="1"/>
  
  <!-- Eyes -->
  <circle cx="45" cy="37" r="2" fill="#374151"/>
  <circle cx="55" cy="37" r="2" fill="#374151"/>
  
  <!-- Nose -->
  <circle cx="50" cy="41" r="1" fill="#9CA3AF"/>
  
  <!-- Mouth -->
  <path d="M 47 44 Q 50 46 53 44" stroke="#6B7280" stroke-width="1" fill="none"/>
  
  <!-- Body -->
  <ellipse cx="50" cy="65" rx="12" ry="15" fill="#F3F4F6" stroke="#6B7280" stroke-width="1"/>
  
  <!-- Arms -->
  <ellipse cx="38" cy="60" rx="4" ry="8" fill="#F3F4F6" stroke="#6B7280" stroke-width="1"/>
  <ellipse cx="62" cy="60" rx="4" ry="8" fill="#F3F4F6" stroke="#6B7280" stroke-width="1"/>
  
  <!-- Heart symbol -->
  <path d="M 50 25 C 47 22, 42 22, 42 27 C 42 32, 50 38, 50 38 C 50 38, 58 32, 58 27 C 58 22, 53 22, 50 25 Z" fill="#EF4444"/>
</svg>